<svg xmlns="http://www.w3.org/2000/svg" xmlns:xlink="http://www.w3.org/1999/xlink" width="1280" zoomAndPan="magnify" viewBox="0 0 960 767.999994" height="1024" preserveAspectRatio="xMidYMid meet"><defs><clipPath id="23cab05061"><path d="M 40.90625 12.066406 L 920 12.066406 L 920 756 L 40.90625 756 Z M 40.90625 12.066406 "></path></clipPath><clipPath id="774c59acf0"><path d="M 562.105469 484.746094 L 387.152344 121.429688 C 381.363281 109.398438 378.816406 96.710938 379.503906 84.078125 C 381.765625 43.691406 415.394531 12.066406 455.753906 12.066406 L 513.410156 12.066406 C 566.03125 12.066406 611.773438 40.824219 634.574219 88.261719 L 912.761719 665.917969 C 917.515625 675.828125 919.578125 686.28125 919.007812 696.652344 C 917.144531 729.878906 889.417969 755.945312 856.191406 755.945312 L 702.429688 755.945312 C 676.164062 755.945312 651.589844 748.753906 630.652344 735.605469 C 609.742188 722.460938 592.667969 703.496094 581.269531 679.75 L 541.597656 597.371094 L 254.960938 741.507812 C 235.453125 751.304688 216.347656 755.945312 194.523438 755.945312 L 113.832031 755.945312 C 60.039062 755.945312 24.921875 699.886719 48.238281 651.453125 L 286.355469 156.917969 C 305.058594 118.019531 360.453125 118.019531 379.160156 156.917969 L 423.269531 248.578125 C 432.40625 267.625 437.046875 287.246094 437.046875 306.925781 C 437.046875 326.605469 432.464844 346.226562 423.269531 365.300781 L 365.726562 484.6875 L 562.078125 484.6875 Z M 841.667969 711.058594 L 856.191406 711.058594 C 869.625 711.058594 878.246094 697.394531 872.402344 685.335938 L 594.214844 107.707031 C 578.75 75.65625 548.929688 56.921875 513.324219 56.921875 L 455.695312 56.921875 C 439.023438 56.921875 425.074219 69.726562 424.074219 86.511719 C 423.785156 91.609375 424.875 96.824219 427.308594 101.980469 L 611.632812 484.773438 L 666.199219 484.773438 C 692.492188 484.773438 717.039062 491.964844 737.976562 505.082031 C 758.886719 518.230469 775.960938 537.21875 787.359375 560.9375 L 836.167969 662.308594 C 843.929688 678.460938 847.054688 693.269531 841.609375 711.058594 Z M 781.460938 711.058594 C 797.097656 711.058594 803 696.277344 796.613281 683.101562 L 747.171875 580.386719 C 739.46875 564.347656 728.066406 551.601562 714.234375 542.921875 C 700.511719 534.300781 684.128906 529.601562 666.226562 529.601562 L 552.996094 529.601562 C 562.910156 540.886719 569.496094 552.289062 575.742188 565.261719 L 621.484375 660.273438 C 629.191406 676.3125 640.589844 689.03125 654.425781 697.738281 C 668.144531 706.363281 684.527344 711.058594 702.402344 711.058594 Z M 518.96875 558.617188 C 513.46875 552.429688 507.28125 547.160156 500.464844 542.863281 C 486.746094 534.242188 470.359375 529.542969 452.457031 529.542969 L 344.070312 529.542969 L 298.671875 623.867188 C 293.285156 634.980469 279.910156 639.679688 268.796875 634.292969 C 257.679688 628.910156 252.984375 615.53125 258.367188 604.417969 C 299.875 518.230469 341.378906 432.011719 382.882812 345.796875 C 389.011719 333.046875 392.078125 319.988281 392.078125 306.898438 C 392.078125 293.808594 389.011719 280.746094 382.882812 268 L 338.800781 176.367188 C 336.308594 171.210938 329.0625 171.210938 326.570312 176.367188 L 88.484375 670.871094 C 79.460938 689.691406 92.894531 711.058594 113.777344 711.058594 L 194.492188 711.058594 C 209.074219 711.058594 221.761719 708.109375 234.796875 701.550781 Z M 518.96875 558.617188 "></path></clipPath><clipPath id="f01402b40d"><path d="M 0.90625 0.0664062 L 879.199219 0.0664062 L 879.199219 744 L 0.90625 744 Z M 0.90625 0.0664062 "></path></clipPath><clipPath id="51721f142d"><path d="M 522.105469 472.746094 L 347.152344 109.429688 C 341.363281 97.398438 338.816406 84.710938 339.503906 72.078125 C 341.765625 31.691406 375.394531 0.0664062 415.753906 0.0664062 L 473.410156 0.0664062 C 526.03125 0.0664062 571.773438 28.824219 594.574219 76.261719 L 872.761719 653.917969 C 877.515625 663.828125 879.578125 674.28125 879.007812 684.652344 C 877.144531 717.878906 849.417969 743.945312 816.191406 743.945312 L 662.429688 743.945312 C 636.164062 743.945312 611.589844 736.753906 590.652344 723.605469 C 569.742188 710.460938 552.667969 691.496094 541.269531 667.75 L 501.597656 585.371094 L 214.960938 729.507812 C 195.453125 739.304688 176.347656 743.945312 154.523438 743.945312 L 73.832031 743.945312 C 20.039062 743.945312 -15.078125 687.886719 8.238281 639.453125 L 246.355469 144.917969 C 265.058594 106.019531 320.453125 106.019531 339.160156 144.917969 L 383.269531 236.578125 C 392.40625 255.625 397.046875 275.246094 397.046875 294.925781 C 397.046875 314.605469 392.464844 334.226562 383.269531 353.300781 L 325.726562 472.6875 L 522.078125 472.6875 Z M 801.667969 699.058594 L 816.191406 699.058594 C 829.625 699.058594 838.246094 685.394531 832.402344 673.335938 L 554.214844 95.707031 C 538.75 63.65625 508.929688 44.921875 473.324219 44.921875 L 415.695312 44.921875 C 399.023438 44.921875 385.074219 57.726562 384.074219 74.511719 C 383.785156 79.609375 384.875 84.824219 387.308594 89.980469 L 571.632812 472.773438 L 626.199219 472.773438 C 652.492188 472.773438 677.039062 479.964844 697.976562 493.082031 C 718.886719 506.230469 735.960938 525.21875 747.359375 548.9375 L 796.167969 650.308594 C 803.929688 666.460938 807.054688 681.269531 801.609375 699.058594 Z M 741.460938 699.058594 C 757.097656 699.058594 763 684.277344 756.613281 671.101562 L 707.171875 568.386719 C 699.46875 552.347656 688.066406 539.601562 674.234375 530.921875 C 660.511719 522.300781 644.128906 517.601562 626.226562 517.601562 L 512.996094 517.601562 C 522.910156 528.886719 529.496094 540.289062 535.742188 553.261719 L 581.484375 648.273438 C 589.191406 664.3125 600.589844 677.03125 614.425781 685.738281 C 628.144531 694.363281 644.527344 699.058594 662.402344 699.058594 Z M 478.96875 546.617188 C 473.46875 540.429688 467.28125 535.160156 460.464844 530.863281 C 446.746094 522.242188 430.359375 517.542969 412.457031 517.542969 L 304.070312 517.542969 L 258.671875 611.867188 C 253.285156 622.980469 239.910156 627.679688 228.796875 622.292969 C 217.679688 616.910156 212.984375 603.53125 218.367188 592.417969 C 259.875 506.230469 301.378906 420.011719 342.882812 333.796875 C 349.011719 321.046875 352.078125 307.988281 352.078125 294.898438 C 352.078125 281.808594 349.011719 268.746094 342.882812 256 L 298.800781 164.367188 C 296.308594 159.210938 289.0625 159.210938 286.570312 164.367188 L 48.484375 658.871094 C 39.460938 677.691406 52.894531 699.058594 73.777344 699.058594 L 154.492188 699.058594 C 169.074219 699.058594 181.761719 696.109375 194.796875 689.550781 Z M 478.96875 546.617188 "></path></clipPath><clipPath id="147be475e5"><rect x="0" width="880" y="0" height="744"></rect></clipPath></defs><g id="dbb1f08532"><g clip-rule="nonzero" clip-path="url(#23cab05061)"><g clip-rule="nonzero" clip-path="url(#774c59acf0)"><g transform="matrix(1,0,0,1,40,12)"><g clip-path="url(#147be475e5)"><g clip-rule="nonzero" clip-path="url(#f01402b40d)"><g clip-rule="nonzero" clip-path="url(#51721f142d)"><path style=" stroke:none;fill-rule:nonzero;fill:#ffffff;fill-opacity:1;" d="M 0.90625 0.0664062 L 879.09375 0.0664062 L 879.09375 743.808594 L 0.90625 743.808594 Z M 0.90625 0.0664062 "></path></g></g></g></g></g></g></g></svg>